<?xml version="1.0" standalone="no"?>
<!DOCTYPE svg PUBLIC "-//W3C//DTD SVG 20010904//EN"
 "http://www.w3.org/TR/2001/REC-SVG-20010904/DTD/svg10.dtd">
<svg version="1.0" xmlns="http://www.w3.org/2000/svg"
 width="96.000000pt" height="96.000000pt" viewBox="0 0 96.000000 96.000000"
 preserveAspectRatio="xMidYMid meet">
<metadata>
Created by potrace 1.11, written by Peter Selinger 2001-2013
</metadata>
<g transform="translate(0.000000,96.000000) scale(0.100000,-0.100000)"
fill="#000000" stroke="none">
<path d="M22 936 c-18 -24 -22 -41 -22 -100 0 -66 2 -74 31 -105 30 -33 30
-34 15 -72 -19 -47 -11 -158 15 -210 19 -38 67 -59 81 -36 5 8 12 6 25 -5 27
-25 104 -58 136 -58 24 0 27 -4 27 -35 0 -41 -23 -47 -61 -16 -21 17 -27 18
-51 5 -19 -10 -28 -22 -28 -39 0 -37 0 -37 -23 -78 -11 -20 -24 -37 -29 -37
-4 0 -8 -9 -8 -20 0 -16 -8 -20 -57 -23 l-58 -3 62 -2 61 -2 17 -50 17 -50 98
0 98 0 4 30 c3 16 1 33 -3 37 -7 7 -13 60 -10 91 1 6 7 12 15 12 8 0 24 16 36
35 24 39 32 42 50 20 15 -18 31 -20 24 -2 -6 17 71 92 80 78 12 -19 36 -12 68
19 l29 30 44 -30 c24 -17 47 -30 51 -30 5 0 23 14 41 31 l32 32 -40 29 c-60
43 -54 58 62 171 93 90 102 103 107 142 l4 44 -48 -15 c-48 -14 -116 -73 -232
-197 -19 -21 -40 -36 -46 -34 -7 2 -10 27 -8 69 2 42 -2 77 -11 101 -14 33
-14 37 4 53 27 25 69 103 68 128 -1 25 -49 108 -67 114 -7 2 -12 -6 -12 -23 0
-39 -25 -80 -62 -103 -43 -26 -65 -29 -111 -13 -51 17 -173 16 -216 -2 -71
-30 -152 26 -171 117 l-6 30 -22 -28z m248 -383 c0 -36 47 -124 64 -120 15 5
66 109 66 136 0 25 2 26 65 26 l65 0 0 -74 c0 -80 -2 -84 -71 -121 -85 -45
-213 -31 -284 31 -33 30 -35 34 -35 98 l0 66 65 -3 65 -4 0 -35z m250 -167
c-22 -24 -22 -56 0 -56 15 0 12 -15 -8 -40 l-19 -23 -21 21 c-26 26 -44 27
-77 6 -29 -19 -45 -11 -45 21 0 19 7 26 28 31 42 9 115 36 137 51 29 20 31 16
5 -11z"/>
<path d="M500 140 c0 -11 -11 -45 -25 -76 -30 -67 -29 -64 -7 -64 13 0 24 17
40 62 26 74 28 98 7 98 -8 0 -15 -9 -15 -20z"/>
</g>
</svg>
